<svg version="1" xmlns="http://www.w3.org/2000/svg" width="426.667" height="426.667" viewBox="0 0 320.000000 320.000000"><path d="M0 160v160h320V0H0v160zm74.8-45.2c9.7 18.6 12.9 24 13.7 22.9.5-.8 6.4-11.8 13-24.5l12-23.2h41.7l-2 3.2c-1.1 1.8-12.4 20.6-25.1 41.8L105 173.5V230H70v-57.5l-24.5-40.8C32 109.2 21 90.6 21 90.4c0-.2 9.3-.3 20.6-.2l20.5.3 12.7 24.3zm143.7-1.6c6.6 12.7 12.5 23.7 13 24.5.8 1.1 4-4.3 13.7-22.9l12.7-24.3 20.5-.3c11.3-.1 20.6 0 20.6.2s-11 18.8-24.5 41.3L250 172.5V230h-35v-56.5L191.9 135c-12.7-21.2-24-40-25.1-41.8l-2-3.2h41.7l12 23.2z"/></svg>