<?xml version="1.0" encoding="UTF-8"?>
<svg width="32px" height="32px" viewBox="0 0 32 32" version="1.1" xmlns="http://www.w3.org/2000/svg" xmlns:xlink="http://www.w3.org/1999/xlink">
    <!-- Generator: Sketch 43.2 (39069) - http://www.bohemiancoding.com/sketch -->
    <title>grid-layout-dark</title>
    <desc>Created with Sketch.</desc>
    <defs></defs>
    <g id="Symbols" stroke="none" stroke-width="1" fill="none" fill-rule="evenodd">
        <g id="grid-layout-dark">
            <g id="icon-/-grid-layout">
                <rect id="Rectangle" x="0" y="0" width="32" height="32"></rect>
                <path d="M2,14 L10,14 L10,22 L2,22 L2,14 Z M2,4 L10,4 L10,12 L2,12 L2,4 Z M12,19 L20,19 L20,28 L12,28 L12,19 Z M12,4 L20,4 L20,17 L12,17 L12,4 Z M22,10 L30,10 L30,18 L22,18 L22,10 Z M22,4 L30,4 L30,8 L22,8 L22,4 Z" id="Combined-Shape" fill="#111111"></path>
            </g>
        </g>
    </g>
</svg>