<?xml version="1.0" encoding="utf-8"?>
<!-- Generator: Adobe Illustrator 22.0.1, SVG Export Plug-In . SVG Version: 6.00 Build 0)  -->
<svg version="1.1" id="Layer_1" xmlns="http://www.w3.org/2000/svg" xmlns:xlink="http://www.w3.org/1999/xlink" x="0px" y="0px"
	 viewBox="0 0 150 32" style="enable-background:new 0 0 150 32;" xml:space="preserve">
<style type="text/css">
	.st0{fill:#111111;}
</style>
<path id="Combined-Shape" class="st0" d="M53.7,15.1c0,2.2-0.2,4.1-1.5,5.9c-1.5,2-3.7,2.9-6.2,2.9c-4.7,0-8-3.2-8-7.9
	c0-4.9,3.3-8.1,8.1-8.1c3.1,0,5.5,1.4,6.8,4.2l-3.7,1.6c-0.5-1.4-1.7-2.4-3.2-2.4c-2.6,0-3.9,2.4-3.9,4.7c0,2.3,1.4,4.7,4,4.7
	c1.7,0,3-0.9,3.1-2.6h-3.2v-3.1H53.7z M68.6,23.5h-4.8l-3.7-5.8h0v5.8h-3.9v-15H62c3,0,5.2,1.4,5.2,4.6c0,2.1-1.2,3.9-3.3,4.2
	L68.6,23.5z M74.5,20.9l-1,2.6h-4.1l5.8-15h4.3l5.6,15h-4.2l-1-2.6H74.5z M86.9,8.5h6c3.2,0,5.4,1.5,5.4,4.9c0,3.5-1.9,5.1-5.3,5.1
	h-2.2v5h-3.9V8.5z M110.1,14.3V8.5h3.9v15h-3.9v-6.1h-5.6v6.1h-3.9v-15h3.9v5.8H110.1z M117.3,23.5v-15h3.9v15H117.3z M135.2,13.5
	c-0.8-1.1-2.1-1.7-3.4-1.7c-2.4,0-4,1.8-4,4.2c0,2.4,1.6,4.1,4.1,4.1c1.3,0,2.5-0.6,3.4-1.6v4.7c-1.3,0.4-2.2,0.7-3.4,0.7
	c-2.1,0-4.1-0.8-5.6-2.2c-1.6-1.5-2.4-3.4-2.4-5.7c0-2,0.8-4,2.2-5.5c1.5-1.5,3.6-2.4,5.7-2.4c1.3,0,2.4,0.3,3.6,0.8V13.5z
	 M146.4,12.4c-0.7-0.6-1.6-1-2.6-1c-0.7,0-1.7,0.4-1.7,1.3c0,0.9,1.1,1.2,1.7,1.4l1,0.3c2.1,0.6,3.7,1.7,3.7,4.1c0,1.5-0.4,3-1.6,4
	c-1.2,1-2.7,1.4-4.3,1.4c-1.9,0-3.7-0.6-5.3-1.7l1.7-3.1c1,0.9,2.1,1.6,3.5,1.6c0.9,0,1.9-0.5,1.9-1.5c0-1.1-1.5-1.5-2.4-1.7
	c-2.4-0.7-4.1-1.3-4.1-4.2c0-3,2.2-5,5.2-5c1.5,0,3.4,0.5,4.7,1.2L146.4,12.4z M1,8.2h4.8l2.9,5.4l2.9-5.4h4.8l-5.7,9.3v6.3h-4v-6.3
	L1,8.2z M17.5,8.2h4.8l2.9,5.4l2.9-5.4H33l-5.7,9.3v6.3h-4v-6.3L17.5,8.2z M60.1,15.2h0.4c1.3,0,2.7-0.2,2.7-1.9s-1.4-1.9-2.7-1.9
	h-0.4V15.2z M77.3,13.1L77.3,13.1l-1.6,4.8h3.2L77.3,13.1z M90.8,15.4h0.7c1.4,0,2.8,0,2.8-1.8c0-1.9-1.3-1.9-2.8-1.9h-0.7V15.4z"/>
</svg>
